<svg id="Capa_1" enable-background="new 0 0 497 497" height="512" viewBox="0 0 497 497" width="512" xmlns="http://www.w3.org/2000/svg"><g><g><path d="m425.032 149.117 16.25 22.035-.051.139c-42.321 92.127-97.941 127.824-157.842 145.384-68.959 20.216-131.222 1.827-148.698-4.664-52.475-19.49-94.149-58.468-93.882-69.673l-.267-1.391 13.787-28.096 1.302-.939c80.264 48.38 150.01 59.571 200.674 43.334 42.833-13.727 77.332-42.866 98.293-64.276 17.554-17.93 38.65-32.014 62.052-41.104 2.605-1.012 4.212-1.43 4.806-1.642z" fill="#fcef66"/><path d="m472.269 174.651c-.501-2.281-86.068 12.818-93.198 24.906-15.027 25.477-35.955 53.175-63.822 74.767-30.8 23.864-74.064 39.144-128.777 41.671-15.356.709-30.7-1.767-45.11-7.122-.048-.018-.096-.036-.143-.053-52.475-19.49-86.775-50.021-100.409-66.482l-18.777-.157-15.893 6.45c32.833 97.827 171.329 152.2 276.464 133.593 97.906-17.328 142.778-58.878 175.191-114.221 16.471-28.122 21.473-61.511 14.474-93.352z" fill="#f7e242"/><path d="m55.631 211.912c-7.251-4.37-14.587-9.044-22.003-14.029-1.827-1.228-4.231-1.178-5.991.145l-14.272 10.724c-1.463 1.099-12.115 10.357-11.886 12.173 1.161 9.212 2.806 17.094 5.681 25.66l31.021-4.532c.647-.109 2.121.669 2.629.284s.912-.882 1.191-1.475z" fill="#966a5b"/><path d="m13.365 208.753-11.302 8.492c-1.463 1.099-2.253 2.895-2.024 4.711 1.161 9.212 3.226 18.11 6.101 26.676l32.905-5.528c.244-.039.562-.113.913-.263.37-.158.651-.346.852-.503z" fill="#845752"/></g><g><path d="m64.819 385.074 30.156-17.6c18.441 10.805 60.08 26.892 116.057 27.26 18.642.122 75.136.114 133.021-42.468 50.283-36.989 91.4-85.678 99.66-186.723l1.532-1.362 27.213-12.149.948.408c.877 2.137 1.944 4.204 3.196 6.177 17.468 27.527 24.187 60.613 18.328 92.673-11.53 63.091-39.485 117.483-125.56 167.251-92.43 53.443-241.171 49.718-305.483-30.98z" fill="#f7e242"/><path d="m441.282 150.053c3.854-5.295 3.274-39.762 3.959-46.369l7.312-15.844 22.113 6.745-4.014 38.771c-.674 6.526.288 13.079 2.753 19.083l-27.119 13.486z" fill="#f0db32"/><path d="m452.861 88.599-20.276 1.31-4.165 40.159c-.685 6.607-3.111 12.861-6.965 18.155l23.331 21.893 1.5-4.191z" fill="#f7e242"/><path d="m473.074 92.521-39.064-4.681-2.553-29.021c-.719-8.481 4.732-14.404 13.191-13.362l5.535-1.872 22.976 2.83c8.315 1.024 13.669 9.322 11.166 17.308l-2.921 9.327z" fill="#966a5b"/><path d="m452.288 66.65-2.105-23.065-5.553-.684c-8.459-1.042-15.736 5.952-15.017 14.433l2.972 32.574 42.081 4.677 6.737-21.535-25.566-2.787c-1.891-.206-3.376-1.717-3.549-3.613z" fill="#845752"/><path d="m423.057 149.429 23.23 16.497c-8.26 101.046-48.316 153.761-98.599 190.75-57.886 42.582-117.642 41.366-136.284 41.243-55.976-.367-98.987-17.068-117.429-27.872l-1.88-3.292 4.936-29.564.803-1.062c91.97 18.01 161.338 4.672 203.393-27.914 35.555-27.549 58.007-66.73 70.381-94.018 10.363-22.852 25.37-43.302 44.251-59.848 2.102-1.842 3.975-3.899 5.596-6.125z" fill="#fcef66"/><path d="m97.835 336.129c-8.308-1.627-16.801-3.51-25.474-5.657-2.137-.529-4.379.341-5.58 2.185l-8.701 13.415c-.999 1.534-7.203 15.29-6.367 16.918 4.242 8.259 6.543 13.7 12.174 20.766l26.603-14.213 3.486.505c.56-.737.913-1.625 1-2.573z" fill="#966a5b"/><path d="m93.976 370.047-35.896-23.975-8.758 13.39c-.999 1.534-1.127 3.491-.291 5.119 4.242 8.259 9.226 15.915 14.857 22.981l28.574-16.191c.244-.138.535-.33.836-.595.29-.256.512-.511.678-.729z" fill="#845752"/></g></g></svg>